<svg width="24" height="22" viewBox="0 0 24 22" fill="none" xmlns="http://www.w3.org/2000/svg">
<path d="M12.162 0.28803L15.439 6.95424L22.7768 8.02055C22.87 8.03434 22.9573 8.07384 23.0291 8.1346C23.101 8.19537 23.1543 8.27497 23.1833 8.36446C23.2122 8.45394 23.2155 8.54975 23.1929 8.6411C23.1703 8.73245 23.1226 8.8157 23.0552 8.88149L17.7411 14.0726L18.9881 21.4004C19.0042 21.493 18.9939 21.5883 18.9586 21.6755C18.9232 21.7627 18.8641 21.8383 18.7879 21.8937C18.7118 21.949 18.6217 21.982 18.5278 21.9889C18.4339 21.9957 18.34 21.9762 18.2568 21.9324L11.6955 18.476L5.12791 21.9391C5.04463 21.9831 4.95071 22.0028 4.85681 21.9962C4.76291 21.9895 4.6728 21.9567 4.59672 21.9014C4.52065 21.846 4.46165 21.7705 4.42644 21.6833C4.39124 21.5961 4.38123 21.5008 4.39756 21.4082L5.65772 14.0778L0.351508 8.89124C0.284228 8.82551 0.236677 8.7423 0.214211 8.65097C0.191745 8.55964 0.195256 8.46383 0.224349 8.37432C0.253441 8.28481 0.30696 8.20516 0.378878 8.14433C0.450795 8.08351 0.538255 8.04393 0.631408 8.03006L7.97116 6.95745L11.2616 0.288417C11.3027 0.203906 11.3667 0.132622 11.4464 0.0827283C11.526 0.0328351 11.6181 0.00635145 11.7121 0.00631108C11.8061 0.00627071 11.8981 0.0326753 11.9777 0.0825001C12.0573 0.132325 12.1211 0.203555 12.162 0.28803Z" fill="#FDE047"/>
</svg>
